<?xml version="1.0" encoding="utf-8"?>
<!-- Generator: Adobe Illustrator 24.0.2, SVG Export Plug-In . SVG Version: 6.00 Build 0)  -->
<svg version="1.1" id="Capa_1" xmlns="http://www.w3.org/2000/svg" xmlns:xlink="http://www.w3.org/1999/xlink" x="0px" y="0px"
	 viewBox="0 0 841.89 595.28" style="enable-background:new 0 0 841.89 595.28;" xml:space="preserve">
<style type="text/css">
	.st0{fill:#FFED00;}
	.st1{fill:#E6007E;}
	.st2{fill:#009FE3;}
</style>
<g>
	<g>
		<path class="st0" d="M76.9,286.23l0.91-9.57l1.78-32.45l0.5-13.08v-7.11c4.72,0.06,8.88,0.09,12.51,0.09
			c2.59,0,6.22-0.03,10.91-0.09l19.45,35.38l2.68,5.2c0.34-5.1,0.69-12.26,1.05-21.47c0.36-9.21,0.54-15.58,0.54-19.1
			c3.73,0.06,6.72,0.09,8.97,0.09c1.03,0,4.01-0.03,8.92-0.09l-1.09,13.58l-2.05,37.73l-0.27,10.89c-3.95-0.06-7.65-0.09-11.08-0.09
			c-2.86,0-6.81,0.03-11.86,0.09c-1.58-2.98-2.75-5.14-3.5-6.47l-7.65-12.99c-2.52-4.25-4.84-8.33-6.96-12.22
			c-1.4-2.46-2.84-5.17-4.32-8.11l-0.98,21.61l-0.47,18.19c-3.76-0.06-6.63-0.09-8.6-0.09C84.61,286.14,81.49,286.17,76.9,286.23z"
			/>
		<path class="st0" d="M159.02,286.23c0.76-7.84,1.32-14.4,1.67-19.69c0.35-5.29,0.7-12.31,1.05-21.08
			c0.35-8.76,0.53-14.57,0.53-17.43l-0.05-4.01c7.17,0.06,15.84,0.09,26.02,0.09c9.39,0,17.66-0.03,24.83-0.09l-0.09,1.5
			c-0.03,0.36-0.11,1.68-0.23,3.95l-0.27,4.95c-0.06,1.06-0.09,2.14-0.09,3.23c-5.86-0.24-10.79-0.36-14.76-0.36
			c-4.37,0-7.33,0.01-8.86,0.02c-1.53,0.02-3.93,0.08-7.18,0.21L181.02,248c3.59,0.09,7.76,0.14,12.53,0.14
			c1.7,0,6.23-0.11,13.58-0.32c-0.3,3.89-0.59,8.52-0.86,13.9c-5.25-0.06-9.29-0.09-12.11-0.09c-4.19,0-8.88,0.11-14.07,0.32
			l-0.54,11.07h5.24c1.55,0,4.75-0.05,9.61-0.14l9.43-0.23c1.4-0.03,3.73-0.15,7.01-0.36c-0.36,4.5-0.67,9.14-0.91,13.94
			c-7.41-0.06-15.54-0.09-24.38-0.09l-20.05,0.05L159.02,286.23z"/>
		<path class="st0" d="M263.82,222.85c4.86,0,9.54,0.65,14.04,1.96c4.5,1.31,8.43,3.39,11.8,6.27c3.37,2.87,5.89,6.17,7.56,9.91
			c1.67,3.74,2.51,8.04,2.51,12.9c0,5.1-0.92,9.79-2.76,14.06c-1.84,4.27-4.49,7.89-7.95,10.87c-3.46,2.98-7.6,5.16-12.4,6.54
			c-4.8,1.38-9.8,2.07-14.99,2.07c-5.13,0-10.06-0.68-14.76-2.03c-4.71-1.35-8.8-3.54-12.28-6.56c-3.48-3.02-5.95-6.39-7.4-10.09
			c-1.46-3.71-2.19-7.82-2.19-12.35c0-6.65,1.54-12.49,4.63-17.52c3.08-5.03,7.66-8.95,13.72-11.78
			C249.4,224.26,256.22,222.85,263.82,222.85z M263,236.56c-3.49,0-6.65,0.86-9.48,2.57c-2.83,1.72-5,4.1-6.52,7.15
			c-1.52,3.05-2.28,6.33-2.28,9.82c0,3.22,0.69,6.17,2.07,8.84c1.38,2.67,3.49,4.76,6.31,6.27s5.82,2.26,8.98,2.26
			c3.37,0,6.46-0.84,9.27-2.53c2.81-1.69,4.95-4.06,6.43-7.11c1.47-3.05,2.21-6.25,2.21-9.59c0-3.25-0.68-6.25-2.05-9
			c-1.37-2.75-3.37-4.88-6.02-6.4C269.29,237.32,266.31,236.56,263,236.56z"/>
		<path class="st0" d="M312.66,286.23l0.91-9.57l1.78-32.45l0.5-13.08v-7.11c4.72,0.06,8.88,0.09,12.51,0.09
			c2.59,0,6.22-0.03,10.91-0.09l19.45,35.38l2.68,5.2c0.34-5.1,0.69-12.26,1.05-21.47c0.36-9.21,0.54-15.58,0.54-19.1
			c3.73,0.06,6.72,0.09,8.97,0.09c1.03,0,4.01-0.03,8.92-0.09l-1.09,13.58l-2.05,37.73l-0.27,10.89c-3.95-0.06-7.65-0.09-11.08-0.09
			c-2.86,0-6.81,0.03-11.86,0.09c-1.58-2.98-2.75-5.14-3.5-6.47l-7.65-12.99c-2.52-4.25-4.84-8.33-6.96-12.22
			c-1.4-2.46-2.84-5.17-4.32-8.11l-0.98,21.61l-0.47,18.19c-3.76-0.06-6.63-0.09-8.6-0.09
			C320.37,286.14,317.25,286.17,312.66,286.23z"/>
		<path class="st0" d="M394.91,286.23c0.67-6.93,1.13-12.47,1.38-16.63c0.37-6.2,0.73-14.22,1.1-24.06
			c0.27-7.53,0.41-12.93,0.41-16.18v-5.33c3.55,0.09,6.62,0.14,9.2,0.14c2.49,0,5.76-0.07,9.79-0.21c4.04-0.14,7.84-0.21,11.39-0.21
			c4.07,0,7.64,0.24,10.71,0.73c3.07,0.49,5.93,1.49,8.59,3.01c2.66,1.52,4.88,3.51,6.67,5.97c1.79,2.46,3.16,5.34,4.1,8.64
			c0.94,3.3,1.41,6.69,1.41,10.18c0,3.43-0.37,6.74-1.09,9.91c-0.73,3.17-1.75,6.04-3.05,8.59c-1.31,2.55-2.83,4.75-4.58,6.58
			c-1.75,1.84-3.75,3.41-5.99,4.72c-1.67,0.97-3.36,1.73-5.06,2.28c-1.7,0.55-4.03,0.99-6.97,1.32c-3.28,0.36-7,0.55-11.17,0.55
			l-18.41-0.14C401.61,286.1,398.8,286.14,394.91,286.23z M414.61,272.52c1.67,0.15,3.42,0.23,5.24,0.23c3.1,0,5.86-0.27,8.29-0.82
			s4.56-1.72,6.4-3.51s3.2-4.09,4.08-6.9c0.88-2.81,1.32-5.69,1.32-8.64c0-3.61-0.65-6.66-1.96-9.14c-1.31-2.48-3.05-4.2-5.22-5.17
			c-2.17-0.97-5.13-1.46-8.86-1.46c-2.19,0-4.77,0.09-7.75,0.27L414.61,272.52z"/>
		<path class="st0" d="M472.56,286.23c0.76-7.84,1.32-14.4,1.67-19.69s0.7-12.31,1.05-21.08c0.35-8.76,0.53-14.57,0.53-17.43
			l-0.04-4.01c7.17,0.06,15.84,0.09,26.02,0.09c9.39,0,17.66-0.03,24.83-0.09l-0.09,1.5c-0.03,0.36-0.11,1.68-0.23,3.95l-0.27,4.95
			c-0.06,1.06-0.09,2.14-0.09,3.23c-5.86-0.24-10.79-0.36-14.76-0.36c-4.37,0-7.33,0.01-8.86,0.02c-1.53,0.02-3.93,0.08-7.18,0.21
			L494.56,248c3.59,0.09,7.76,0.14,12.54,0.14c1.7,0,6.23-0.11,13.58-0.32c-0.3,3.89-0.59,8.52-0.87,13.9
			c-5.25-0.06-9.29-0.09-12.11-0.09c-4.19,0-8.88,0.11-14.07,0.32l-0.54,11.07h5.24c1.55,0,4.75-0.05,9.61-0.14l9.43-0.23
			c1.4-0.03,3.73-0.15,7.01-0.36c-0.36,4.5-0.67,9.14-0.91,13.94c-7.41-0.06-15.54-0.09-24.38-0.09l-20.05,0.05L472.56,286.23z"/>
		<path class="st0" d="M539.17,285.28c-0.39-6.47-0.85-11.65-1.37-15.54c3.41,1.52,6.45,2.57,9.11,3.17c2.66,0.59,5,0.89,7.01,0.89
			c2.65,0,4.75-0.39,6.32-1.16c1.57-0.77,2.35-1.92,2.35-3.44c0-0.52-0.08-1.01-0.23-1.48c-0.15-0.47-0.44-1-0.87-1.59
			c-0.43-0.59-1.04-1.24-1.83-1.94l-8.59-7.47c-2.01-1.7-3.41-2.93-4.2-3.69c-1.61-1.55-2.87-2.99-3.77-4.33
			c-0.9-1.34-1.55-2.7-1.96-4.08c-0.41-1.38-0.62-2.85-0.62-4.4c0-1.85,0.33-3.67,0.98-5.45c0.65-1.78,1.63-3.44,2.94-4.99
			c1.31-1.55,3.04-2.89,5.2-4.01c2.16-1.12,4.47-1.89,6.93-2.3c2.46-0.41,5-0.61,7.61-0.61c5.13,0,10.72,0.59,16.77,1.78
			c0.09,2.1,0.2,4.02,0.32,5.76c0.12,1.75,0.41,4.81,0.87,9.18c-2.8-1.12-5.35-1.91-7.66-2.35c-2.31-0.44-4.3-0.66-5.97-0.66
			c-2.37,0-4.34,0.44-5.9,1.32c-1.56,0.88-2.35,1.98-2.35,3.28c0,0.61,0.12,1.2,0.37,1.78c0.24,0.58,0.7,1.25,1.37,2.03
			c0.67,0.77,1.55,1.63,2.64,2.55s2.81,2.3,5.15,4.12l3.28,2.6c0.97,0.79,2.02,1.75,3.14,2.87c1.12,1.12,2.1,2.23,2.92,3.33
			c0.82,1.09,1.45,2.1,1.89,3.01s0.77,1.83,0.98,2.76c0.21,0.93,0.32,1.92,0.32,2.98c0,2.73-0.65,5.34-1.96,7.81
			c-1.31,2.48-3.16,4.51-5.56,6.11c-2.4,1.6-5.04,2.71-7.91,3.35c-2.87,0.64-5.9,0.96-9.09,0.96
			C552.89,287.42,546.68,286.7,539.17,285.28z"/>
		<path class="st0" d="M597.09,286.23c1.75-24.39,2.63-43.17,2.63-56.32l-0.05-5.88c5.32,0.06,8.88,0.09,10.67,0.09
			c0.82,0,4.09-0.03,9.8-0.09c-0.55,6.84-0.99,13.31-1.33,19.41c-0.43,8.51-0.73,16.46-0.92,23.86c-0.18,7.4-0.27,13.71-0.27,18.93
			l-9.34-0.09C606.47,286.14,602.73,286.17,597.09,286.23z"/>
		<path class="st0" d="M670.99,249.96c4.16,0.06,8.13,0.09,11.89,0.09c6.44,0,11.48-0.03,15.13-0.09
			c-0.39,4.16-0.8,10.06-1.21,17.68c-0.41,7.63-0.66,13.38-0.75,17.27c-3.5,0.64-6.39,1.1-8.68,1.39c-2.29,0.29-5.05,0.55-8.27,0.77
			c-3.22,0.23-6.09,0.34-8.61,0.34c-4.13,0-8.19-0.33-12.17-1s-7.54-1.75-10.69-3.24c-3.14-1.49-5.77-3.51-7.86-6.06
			c-2.1-2.55-3.71-5.57-4.85-9.07c-1.14-3.49-1.71-7.11-1.71-10.85c0-6.17,1.53-11.89,4.6-17.18c3.07-5.29,7.48-9.47,13.24-12.55
			c5.76-3.08,13.19-4.63,22.31-4.63c6.65,0,14.02,0.81,22.1,2.42c0,4.44,0.2,9.37,0.59,14.81c-2.19-0.73-3.96-1.28-5.31-1.66
			c-1.35-0.38-2.93-0.73-4.74-1.05s-3.52-0.55-5.15-0.71c-1.63-0.15-3.08-0.23-4.35-0.23c-3.34,0-6.5,0.48-9.48,1.44
			c-2.98,0.96-5.54,2.43-7.68,4.42c-2.14,1.99-3.74,4.37-4.81,7.13c-1.06,2.76-1.59,5.68-1.59,8.75c0,3.13,0.61,5.92,1.82,8.36
			c1.21,2.45,3.14,4.31,5.79,5.58c2.64,1.28,5.59,1.91,8.84,1.91c2.7,0,5.67-0.39,8.89-1.19l0.52-9.89
			c-1.98-0.09-3.15-0.14-3.52-0.14l-4.84,0.05l0.32-5.6c0.03-0.61,0.08-1.48,0.14-2.62C670.96,253.49,670.99,251.94,670.99,249.96z"
			/>
		<path class="st0" d="M712.87,286.23l0.91-9.57l1.78-32.45l0.5-13.08v-7.11c4.72,0.06,8.88,0.09,12.51,0.09
			c2.59,0,6.22-0.03,10.91-0.09l19.45,35.38l2.68,5.2c0.34-5.1,0.69-12.26,1.05-21.47s0.54-15.58,0.54-19.1
			c3.73,0.06,6.72,0.09,8.97,0.09c1.03,0,4.01-0.03,8.92-0.09l-1.09,13.58l-2.05,37.73l-0.27,10.89c-3.95-0.06-7.65-0.09-11.08-0.09
			c-2.86,0-6.81,0.03-11.86,0.09c-1.58-2.98-2.75-5.14-3.5-6.47l-7.65-12.99c-2.52-4.25-4.84-8.33-6.96-12.22
			c-1.4-2.46-2.84-5.17-4.32-8.11l-0.98,21.61l-0.47,18.19c-3.76-0.06-6.63-0.09-8.6-0.09
			C720.57,286.14,717.45,286.17,712.87,286.23z"/>
	</g>
	<g>
		<path class="st1" d="M67.33,278.51l0.91-9.57l1.78-32.45l0.5-13.08v-7.11c4.72,0.06,8.88,0.09,12.51,0.09
			c2.59,0,6.22-0.03,10.91-0.09l19.45,35.38l2.68,5.2c0.34-5.1,0.69-12.26,1.05-21.47c0.36-9.21,0.54-15.58,0.54-19.1
			c3.73,0.06,6.72,0.09,8.97,0.09c1.03,0,4.01-0.03,8.92-0.09l-1.09,13.58l-2.05,37.73l-0.27,10.89c-3.95-0.06-7.65-0.09-11.08-0.09
			c-2.86,0-6.81,0.03-11.86,0.09c-1.58-2.98-2.75-5.14-3.5-6.47l-7.65-12.99c-2.52-4.25-4.84-8.33-6.96-12.22
			c-1.4-2.46-2.84-5.17-4.32-8.11l-0.98,21.61l-0.47,18.19c-3.76-0.06-6.63-0.09-8.6-0.09C75.04,278.42,71.91,278.45,67.33,278.51z"
			/>
		<path class="st1" d="M149.44,278.51c0.76-7.84,1.32-14.4,1.67-19.69c0.35-5.29,0.7-12.31,1.05-21.08
			c0.35-8.76,0.53-14.57,0.53-17.43l-0.05-4.01c7.17,0.06,15.84,0.09,26.02,0.09c9.39,0,17.66-0.03,24.83-0.09l-0.09,1.5
			c-0.03,0.36-0.11,1.68-0.23,3.95l-0.27,4.95c-0.06,1.06-0.09,2.14-0.09,3.23c-5.86-0.24-10.79-0.36-14.76-0.36
			c-4.37,0-7.33,0.01-8.86,0.02c-1.53,0.02-3.93,0.08-7.18,0.21l-0.55,10.48c3.59,0.09,7.76,0.14,12.53,0.14
			c1.7,0,6.23-0.11,13.58-0.32c-0.3,3.89-0.59,8.52-0.86,13.9c-5.25-0.06-9.29-0.09-12.11-0.09c-4.19,0-8.88,0.11-14.07,0.32
			l-0.54,11.07h5.24c1.55,0,4.75-0.05,9.61-0.14l9.43-0.23c1.4-0.03,3.73-0.15,7.01-0.36c-0.36,4.5-0.67,9.14-0.91,13.94
			c-7.41-0.06-15.54-0.09-24.38-0.09l-20.05,0.05L149.44,278.51z"/>
		<path class="st1" d="M254.25,215.12c4.86,0,9.54,0.65,14.04,1.96c4.5,1.31,8.43,3.39,11.8,6.27c3.37,2.87,5.89,6.17,7.56,9.91
			c1.67,3.74,2.51,8.04,2.51,12.9c0,5.1-0.92,9.79-2.76,14.06c-1.84,4.27-4.49,7.89-7.95,10.87c-3.46,2.98-7.6,5.16-12.4,6.54
			c-4.8,1.38-9.8,2.07-14.99,2.07c-5.13,0-10.06-0.68-14.76-2.03c-4.71-1.35-8.8-3.54-12.28-6.56c-3.48-3.02-5.95-6.39-7.4-10.09
			c-1.46-3.71-2.19-7.82-2.19-12.35c0-6.65,1.54-12.49,4.63-17.52c3.08-5.03,7.66-8.95,13.72-11.78
			C239.82,216.54,246.65,215.12,254.25,215.12z M253.43,228.84c-3.49,0-6.65,0.86-9.48,2.57s-5,4.1-6.52,7.15
			c-1.52,3.05-2.28,6.33-2.28,9.82c0,3.22,0.69,6.17,2.07,8.84c1.38,2.67,3.49,4.76,6.31,6.27s5.82,2.26,8.98,2.26
			c3.37,0,6.46-0.84,9.27-2.53c2.81-1.69,4.95-4.06,6.43-7.11c1.47-3.05,2.21-6.25,2.21-9.59c0-3.25-0.68-6.25-2.05-9
			c-1.37-2.75-3.37-4.88-6.02-6.4C259.71,229.6,256.74,228.84,253.43,228.84z"/>
		<path class="st1" d="M303.09,278.51l0.91-9.57l1.78-32.45l0.5-13.08v-7.11c4.72,0.06,8.88,0.09,12.51,0.09
			c2.59,0,6.22-0.03,10.91-0.09l19.45,35.38l2.68,5.2c0.34-5.1,0.69-12.26,1.05-21.47c0.36-9.21,0.54-15.58,0.54-19.1
			c3.73,0.06,6.72,0.09,8.97,0.09c1.03,0,4.01-0.03,8.92-0.09l-1.09,13.58l-2.05,37.73l-0.27,10.89c-3.95-0.06-7.65-0.09-11.08-0.09
			c-2.86,0-6.81,0.03-11.86,0.09c-1.58-2.98-2.75-5.14-3.5-6.47l-7.65-12.99c-2.52-4.25-4.84-8.33-6.96-12.22
			c-1.4-2.46-2.84-5.17-4.32-8.11l-0.98,21.61l-0.47,18.19c-3.76-0.06-6.63-0.09-8.6-0.09C310.8,278.42,307.67,278.45,303.09,278.51
			z"/>
		<path class="st1" d="M385.34,278.51c0.67-6.93,1.13-12.47,1.38-16.63c0.37-6.2,0.73-14.22,1.1-24.06
			c0.27-7.53,0.41-12.93,0.41-16.18v-5.33c3.55,0.09,6.62,0.14,9.2,0.14c2.49,0,5.76-0.07,9.79-0.21c4.04-0.14,7.84-0.21,11.39-0.21
			c4.07,0,7.64,0.24,10.71,0.73c3.07,0.49,5.93,1.49,8.59,3.01c2.66,1.52,4.88,3.51,6.67,5.97c1.79,2.46,3.16,5.34,4.1,8.64
			c0.94,3.3,1.41,6.69,1.41,10.18c0,3.43-0.37,6.74-1.09,9.91c-0.73,3.17-1.75,6.04-3.05,8.59c-1.31,2.55-2.83,4.75-4.58,6.58
			c-1.75,1.84-3.75,3.41-5.99,4.72c-1.67,0.97-3.36,1.73-5.06,2.28c-1.7,0.55-4.03,0.99-6.97,1.32c-3.28,0.36-7,0.55-11.17,0.55
			l-18.41-0.14C392.04,278.37,389.23,278.42,385.34,278.51z M405.04,264.79c1.67,0.15,3.42,0.23,5.24,0.23
			c3.1,0,5.86-0.27,8.29-0.82c2.43-0.55,4.56-1.72,6.4-3.51s3.2-4.09,4.08-6.9c0.88-2.81,1.32-5.69,1.32-8.64
			c0-3.61-0.65-6.66-1.96-9.14c-1.31-2.48-3.05-4.2-5.22-5.17c-2.17-0.97-5.13-1.46-8.86-1.46c-2.19,0-4.77,0.09-7.75,0.27
			L405.04,264.79z"/>
		<path class="st1" d="M462.98,278.51c0.76-7.84,1.32-14.4,1.67-19.69c0.35-5.29,0.7-12.31,1.05-21.08
			c0.35-8.76,0.53-14.57,0.53-17.43l-0.04-4.01c7.17,0.06,15.84,0.09,26.02,0.09c9.39,0,17.66-0.03,24.83-0.09l-0.09,1.5
			c-0.03,0.36-0.11,1.68-0.23,3.95l-0.27,4.95c-0.06,1.06-0.09,2.14-0.09,3.23c-5.86-0.24-10.79-0.36-14.76-0.36
			c-4.37,0-7.33,0.01-8.86,0.02c-1.53,0.02-3.93,0.08-7.18,0.21l-0.55,10.48c3.59,0.09,7.76,0.14,12.54,0.14
			c1.7,0,6.23-0.11,13.58-0.32c-0.3,3.89-0.59,8.52-0.87,13.9c-5.25-0.06-9.29-0.09-12.11-0.09c-4.19,0-8.88,0.11-14.07,0.32
			l-0.54,11.07h5.24c1.55,0,4.75-0.05,9.61-0.14l9.43-0.23c1.4-0.03,3.73-0.15,7.01-0.36c-0.36,4.5-0.67,9.14-0.91,13.94
			c-7.41-0.06-15.54-0.09-24.38-0.09l-20.05,0.05L462.98,278.51z"/>
		<path class="st1" d="M529.6,277.55c-0.39-6.47-0.85-11.65-1.37-15.54c3.41,1.52,6.45,2.57,9.11,3.17c2.66,0.59,5,0.89,7.01,0.89
			c2.65,0,4.75-0.39,6.32-1.16c1.57-0.77,2.35-1.92,2.35-3.44c0-0.52-0.08-1.01-0.23-1.48c-0.15-0.47-0.44-1-0.87-1.59
			c-0.43-0.59-1.04-1.24-1.83-1.94l-8.59-7.47c-2.01-1.7-3.41-2.93-4.2-3.69c-1.61-1.55-2.87-2.99-3.77-4.33
			c-0.9-1.34-1.55-2.7-1.96-4.08c-0.41-1.38-0.62-2.85-0.62-4.4c0-1.85,0.33-3.67,0.98-5.45c0.65-1.78,1.63-3.44,2.94-4.99
			c1.31-1.55,3.04-2.89,5.2-4.01c2.16-1.12,4.47-1.89,6.93-2.3c2.46-0.41,5-0.61,7.61-0.61c5.13,0,10.72,0.59,16.77,1.78
			c0.09,2.1,0.2,4.02,0.32,5.76c0.12,1.75,0.41,4.81,0.87,9.18c-2.8-1.12-5.35-1.91-7.66-2.35c-2.31-0.44-4.3-0.66-5.97-0.66
			c-2.37,0-4.34,0.44-5.9,1.32c-1.56,0.88-2.35,1.98-2.35,3.28c0,0.61,0.12,1.2,0.37,1.78c0.24,0.58,0.7,1.25,1.37,2.03
			c0.67,0.77,1.55,1.63,2.64,2.55s2.81,2.3,5.15,4.12l3.28,2.6c0.97,0.79,2.02,1.75,3.14,2.87c1.12,1.12,2.1,2.23,2.92,3.33
			c0.82,1.09,1.45,2.1,1.89,3.01c0.44,0.91,0.77,1.83,0.98,2.76c0.21,0.93,0.32,1.92,0.32,2.98c0,2.73-0.65,5.34-1.96,7.81
			c-1.31,2.48-3.16,4.51-5.56,6.11c-2.4,1.6-5.04,2.71-7.91,3.35c-2.87,0.64-5.9,0.96-9.09,0.96
			C543.32,279.7,537.1,278.98,529.6,277.55z"/>
		<path class="st1" d="M587.51,278.51c1.75-24.39,2.63-43.17,2.63-56.32l-0.05-5.88c5.32,0.06,8.88,0.09,10.67,0.09
			c0.82,0,4.09-0.03,9.8-0.09c-0.55,6.84-0.99,13.31-1.33,19.41c-0.43,8.51-0.73,16.46-0.92,23.86c-0.18,7.4-0.27,13.71-0.27,18.93
			l-9.34-0.09C596.89,278.42,593.16,278.45,587.51,278.51z"/>
		<path class="st1" d="M661.42,242.24c4.16,0.06,8.13,0.09,11.89,0.09c6.44,0,11.48-0.03,15.13-0.09
			c-0.39,4.16-0.8,10.06-1.21,17.68c-0.41,7.63-0.66,13.38-0.75,17.27c-3.5,0.64-6.39,1.1-8.68,1.39c-2.29,0.29-5.05,0.55-8.27,0.77
			c-3.22,0.23-6.09,0.34-8.61,0.34c-4.13,0-8.19-0.33-12.17-1s-7.54-1.75-10.69-3.24c-3.14-1.49-5.77-3.51-7.86-6.06
			c-2.1-2.55-3.71-5.57-4.85-9.07c-1.14-3.49-1.71-7.11-1.71-10.85c0-6.17,1.53-11.89,4.6-17.18c3.07-5.29,7.48-9.47,13.24-12.55
			c5.76-3.08,13.19-4.63,22.31-4.63c6.65,0,14.02,0.81,22.1,2.42c0,4.44,0.2,9.37,0.59,14.81c-2.19-0.73-3.96-1.28-5.31-1.66
			c-1.35-0.38-2.93-0.73-4.74-1.05s-3.52-0.55-5.15-0.71c-1.63-0.15-3.08-0.23-4.35-0.23c-3.34,0-6.5,0.48-9.48,1.44
			c-2.98,0.96-5.54,2.43-7.68,4.42c-2.14,1.99-3.74,4.37-4.81,7.13c-1.06,2.76-1.59,5.68-1.59,8.75c0,3.13,0.61,5.92,1.82,8.36
			c1.21,2.45,3.14,4.31,5.79,5.58c2.64,1.28,5.59,1.91,8.84,1.91c2.7,0,5.67-0.39,8.89-1.19l0.52-9.89
			c-1.98-0.09-3.15-0.14-3.52-0.14l-4.84,0.05l0.32-5.6c0.03-0.61,0.08-1.48,0.14-2.62C661.39,245.77,661.42,244.21,661.42,242.24z"
			/>
		<path class="st1" d="M703.29,278.51l0.91-9.57l1.78-32.45l0.5-13.08v-7.11c4.72,0.06,8.88,0.09,12.51,0.09
			c2.59,0,6.22-0.03,10.91-0.09l19.45,35.38l2.68,5.2c0.34-5.1,0.69-12.26,1.05-21.47s0.54-15.58,0.54-19.1
			c3.73,0.06,6.72,0.09,8.97,0.09c1.03,0,4.01-0.03,8.92-0.09l-1.09,13.58l-2.05,37.73l-0.27,10.89c-3.95-0.06-7.65-0.09-11.08-0.09
			c-2.86,0-6.81,0.03-11.86,0.09c-1.58-2.98-2.75-5.14-3.5-6.47l-7.65-12.99c-2.52-4.25-4.84-8.33-6.96-12.22
			c-1.4-2.46-2.84-5.17-4.32-8.11l-0.98,21.61l-0.47,18.19c-3.76-0.06-6.63-0.09-8.6-0.09C711,278.42,707.88,278.45,703.29,278.51z"
			/>
	</g>
	<g>
		<path class="st2" d="M59.39,285.22l0.91-9.57l1.78-32.45l0.5-13.08v-7.11c4.72,0.06,8.88,0.09,12.51,0.09
			c2.59,0,6.22-0.03,10.91-0.09l19.45,35.38l2.68,5.2c0.34-5.1,0.69-12.26,1.05-21.47c0.36-9.21,0.54-15.58,0.54-19.1
			c3.73,0.06,6.72,0.09,8.97,0.09c1.03,0,4.01-0.03,8.92-0.09l-1.09,13.58l-2.05,37.73l-0.27,10.89c-3.95-0.06-7.65-0.09-11.08-0.09
			c-2.86,0-6.81,0.03-11.86,0.09c-1.58-2.98-2.75-5.14-3.5-6.47l-7.65-12.99c-2.52-4.25-4.84-8.33-6.96-12.22
			c-1.4-2.46-2.84-5.17-4.32-8.11l-0.98,21.61l-0.47,18.19c-3.76-0.06-6.63-0.09-8.6-0.09C67.09,285.13,63.97,285.16,59.39,285.22z"
			/>
		<path class="st2" d="M141.5,285.22c0.76-7.84,1.32-14.4,1.67-19.69c0.35-5.29,0.7-12.31,1.05-21.08
			c0.35-8.76,0.53-14.57,0.53-17.43l-0.05-4.01c7.17,0.06,15.84,0.09,26.02,0.09c9.39,0,17.66-0.03,24.83-0.09l-0.09,1.5
			c-0.03,0.36-0.11,1.68-0.23,3.95l-0.27,4.95c-0.06,1.06-0.09,2.14-0.09,3.23c-5.86-0.24-10.79-0.36-14.76-0.36
			c-4.37,0-7.33,0.01-8.86,0.02c-1.53,0.02-3.93,0.08-7.18,0.21l-0.55,10.48c3.59,0.09,7.76,0.14,12.53,0.14
			c1.7,0,6.23-0.11,13.58-0.32c-0.3,3.89-0.59,8.52-0.86,13.9c-5.25-0.06-9.29-0.09-12.11-0.09c-4.19,0-8.88,0.11-14.07,0.32
			L162.02,272h5.24c1.55,0,4.75-0.05,9.61-0.14l9.43-0.23c1.4-0.03,3.73-0.15,7.01-0.36c-0.36,4.5-0.67,9.14-0.91,13.94
			c-7.41-0.06-15.54-0.09-24.38-0.09l-20.05,0.05L141.5,285.22z"/>
		<path class="st2" d="M246.3,221.83c4.86,0,9.54,0.65,14.04,1.96c4.5,1.31,8.43,3.39,11.8,6.27c3.37,2.87,5.89,6.17,7.56,9.91
			c1.67,3.74,2.51,8.04,2.51,12.9c0,5.1-0.92,9.79-2.76,14.06c-1.84,4.27-4.49,7.89-7.95,10.87c-3.46,2.98-7.6,5.16-12.4,6.54
			c-4.8,1.38-9.8,2.07-14.99,2.07c-5.13,0-10.06-0.68-14.76-2.03c-4.71-1.35-8.8-3.54-12.28-6.56c-3.48-3.02-5.95-6.39-7.4-10.09
			c-1.46-3.71-2.19-7.82-2.19-12.35c0-6.65,1.54-12.49,4.63-17.52c3.08-5.03,7.66-8.95,13.72-11.78
			C231.88,223.25,238.7,221.83,246.3,221.83z M245.48,235.55c-3.49,0-6.65,0.86-9.48,2.57s-5,4.1-6.52,7.15
			c-1.52,3.05-2.28,6.33-2.28,9.82c0,3.22,0.69,6.17,2.07,8.84c1.38,2.67,3.49,4.76,6.31,6.27s5.82,2.26,8.98,2.26
			c3.37,0,6.46-0.84,9.27-2.53c2.81-1.69,4.95-4.06,6.43-7.11c1.47-3.05,2.21-6.25,2.21-9.59c0-3.25-0.68-6.25-2.05-9
			c-1.37-2.75-3.37-4.88-6.02-6.4C251.77,236.31,248.79,235.55,245.48,235.55z"/>
		<path class="st2" d="M295.14,285.22l0.91-9.57l1.78-32.45l0.5-13.08v-7.11c4.72,0.06,8.88,0.09,12.51,0.09
			c2.59,0,6.22-0.03,10.91-0.09l19.45,35.38l2.68,5.2c0.34-5.1,0.69-12.26,1.05-21.47c0.36-9.21,0.54-15.58,0.54-19.1
			c3.73,0.06,6.72,0.09,8.97,0.09c1.03,0,4.01-0.03,8.92-0.09l-1.09,13.58l-2.05,37.73l-0.27,10.89c-3.95-0.06-7.65-0.09-11.08-0.09
			c-2.86,0-6.81,0.03-11.86,0.09c-1.58-2.98-2.75-5.14-3.5-6.47l-7.65-12.99c-2.52-4.25-4.84-8.33-6.96-12.22
			c-1.4-2.46-2.84-5.17-4.32-8.11l-0.98,21.61l-0.47,18.19c-3.76-0.06-6.63-0.09-8.6-0.09
			C302.85,285.13,299.73,285.16,295.14,285.22z"/>
		<path class="st2" d="M377.39,285.22c0.67-6.93,1.13-12.47,1.38-16.63c0.37-6.2,0.73-14.22,1.1-24.06
			c0.27-7.53,0.41-12.93,0.41-16.18v-5.33c3.55,0.09,6.62,0.14,9.2,0.14c2.49,0,5.76-0.07,9.79-0.21c4.04-0.14,7.84-0.21,11.39-0.21
			c4.07,0,7.64,0.24,10.71,0.73c3.07,0.49,5.93,1.49,8.59,3.01c2.66,1.52,4.88,3.51,6.67,5.97c1.79,2.46,3.16,5.34,4.1,8.64
			c0.94,3.3,1.41,6.69,1.41,10.18c0,3.43-0.37,6.74-1.09,9.91c-0.73,3.17-1.75,6.04-3.05,8.59c-1.31,2.55-2.83,4.75-4.58,6.58
			c-1.75,1.84-3.75,3.41-5.99,4.72c-1.67,0.97-3.36,1.73-5.06,2.28c-1.7,0.55-4.03,0.99-6.97,1.32c-3.28,0.36-7,0.55-11.16,0.55
			l-18.41-0.14C384.09,285.08,381.28,285.13,377.39,285.22z M397.09,271.5c1.67,0.15,3.42,0.23,5.24,0.23c3.1,0,5.86-0.27,8.29-0.82
			c2.43-0.55,4.56-1.72,6.4-3.51s3.2-4.09,4.08-6.9c0.88-2.81,1.32-5.69,1.32-8.64c0-3.61-0.65-6.66-1.96-9.14
			c-1.31-2.48-3.05-4.2-5.22-5.17c-2.17-0.97-5.13-1.46-8.86-1.46c-2.19,0-4.77,0.09-7.75,0.27L397.09,271.5z"/>
		<path class="st2" d="M455.04,285.22c0.76-7.84,1.32-14.4,1.67-19.69s0.7-12.31,1.05-21.08c0.35-8.76,0.53-14.57,0.53-17.43
			l-0.04-4.01c7.17,0.06,15.84,0.09,26.02,0.09c9.39,0,17.66-0.03,24.83-0.09l-0.09,1.5c-0.03,0.36-0.11,1.68-0.23,3.95l-0.27,4.95
			c-0.06,1.06-0.09,2.14-0.09,3.23c-5.86-0.24-10.79-0.36-14.76-0.36c-4.37,0-7.33,0.01-8.86,0.02c-1.53,0.02-3.93,0.08-7.18,0.21
			l-0.55,10.48c3.59,0.09,7.76,0.14,12.54,0.14c1.7,0,6.23-0.11,13.58-0.32c-0.3,3.89-0.59,8.52-0.87,13.9
			c-5.25-0.06-9.29-0.09-12.11-0.09c-4.19,0-8.88,0.11-14.07,0.32L475.56,272h5.24c1.55,0,4.75-0.05,9.61-0.14l9.43-0.23
			c1.4-0.03,3.73-0.15,7.01-0.36c-0.36,4.5-0.67,9.14-0.91,13.94c-7.41-0.06-15.54-0.09-24.38-0.09l-20.05,0.05L455.04,285.22z"/>
		<path class="st2" d="M521.65,284.26c-0.39-6.47-0.85-11.65-1.37-15.54c3.41,1.52,6.45,2.57,9.11,3.17c2.66,0.59,5,0.89,7.01,0.89
			c2.65,0,4.75-0.39,6.32-1.16c1.57-0.77,2.35-1.92,2.35-3.44c0-0.52-0.08-1.01-0.23-1.48c-0.15-0.47-0.44-1-0.87-1.59
			c-0.43-0.59-1.04-1.24-1.83-1.94l-8.59-7.47c-2.01-1.7-3.41-2.93-4.2-3.69c-1.61-1.55-2.87-2.99-3.77-4.33
			c-0.9-1.34-1.55-2.7-1.96-4.08c-0.41-1.38-0.62-2.85-0.62-4.4c0-1.85,0.33-3.67,0.98-5.45c0.65-1.78,1.63-3.44,2.94-4.99
			c1.31-1.55,3.04-2.89,5.2-4.01c2.16-1.12,4.47-1.89,6.93-2.3c2.46-0.41,5-0.61,7.61-0.61c5.13,0,10.72,0.59,16.77,1.78
			c0.09,2.1,0.2,4.02,0.32,5.76c0.12,1.75,0.41,4.81,0.87,9.18c-2.8-1.12-5.35-1.91-7.66-2.35c-2.31-0.44-4.3-0.66-5.97-0.66
			c-2.37,0-4.34,0.44-5.9,1.32c-1.56,0.88-2.35,1.98-2.35,3.28c0,0.61,0.12,1.2,0.37,1.78c0.24,0.58,0.7,1.25,1.37,2.03
			c0.67,0.77,1.55,1.63,2.64,2.55s2.81,2.3,5.15,4.12l3.28,2.6c0.97,0.79,2.02,1.75,3.14,2.87c1.12,1.12,2.1,2.23,2.92,3.33
			c0.82,1.09,1.45,2.1,1.89,3.01s0.77,1.83,0.98,2.76c0.21,0.93,0.32,1.92,0.32,2.98c0,2.73-0.65,5.34-1.96,7.81
			c-1.31,2.48-3.16,4.51-5.56,6.11c-2.4,1.6-5.04,2.71-7.91,3.35c-2.87,0.64-5.9,0.96-9.09,0.96
			C535.37,286.4,529.16,285.69,521.65,284.26z"/>
		<path class="st2" d="M579.57,285.22c1.75-24.39,2.63-43.17,2.63-56.32l-0.05-5.88c5.32,0.06,8.88,0.09,10.67,0.09
			c0.82,0,4.09-0.03,9.8-0.09c-0.55,6.84-0.99,13.31-1.33,19.41c-0.43,8.51-0.73,16.46-0.92,23.86c-0.18,7.4-0.27,13.71-0.27,18.93
			l-9.34-0.09C588.95,285.13,585.21,285.16,579.57,285.22z"/>
		<path class="st2" d="M653.47,248.95c4.16,0.06,8.13,0.09,11.89,0.09c6.44,0,11.48-0.03,15.13-0.09
			c-0.39,4.16-0.8,10.06-1.21,17.68c-0.41,7.63-0.66,13.38-0.75,17.27c-3.5,0.64-6.39,1.1-8.68,1.39c-2.29,0.29-5.05,0.55-8.27,0.77
			c-3.22,0.23-6.09,0.34-8.61,0.34c-4.13,0-8.19-0.33-12.17-1s-7.54-1.75-10.69-3.24c-3.14-1.49-5.77-3.51-7.86-6.06
			c-2.1-2.55-3.71-5.57-4.85-9.07c-1.14-3.49-1.71-7.11-1.71-10.85c0-6.17,1.53-11.89,4.6-17.18c3.07-5.29,7.48-9.47,13.24-12.55
			c5.76-3.08,13.19-4.63,22.31-4.63c6.65,0,14.02,0.81,22.1,2.42c0,4.44,0.2,9.37,0.59,14.81c-2.19-0.73-3.96-1.28-5.31-1.66
			c-1.35-0.38-2.93-0.73-4.74-1.05s-3.52-0.55-5.15-0.71c-1.63-0.15-3.08-0.23-4.35-0.23c-3.34,0-6.5,0.48-9.48,1.44
			c-2.98,0.96-5.54,2.43-7.68,4.42c-2.14,1.99-3.74,4.37-4.81,7.13c-1.06,2.76-1.59,5.68-1.59,8.75c0,3.13,0.61,5.92,1.82,8.36
			c1.21,2.45,3.14,4.31,5.79,5.58c2.64,1.28,5.59,1.91,8.84,1.91c2.7,0,5.67-0.39,8.89-1.19l0.52-9.89
			c-1.98-0.09-3.15-0.14-3.52-0.14l-4.84,0.05l0.32-5.6c0.03-0.61,0.08-1.48,0.14-2.62C653.44,252.48,653.47,250.92,653.47,248.95z"
			/>
		<path class="st2" d="M695.35,285.22l0.91-9.57l1.78-32.45l0.5-13.08v-7.11c4.72,0.06,8.88,0.09,12.51,0.09
			c2.59,0,6.22-0.03,10.91-0.09l19.45,35.38l2.68,5.2c0.34-5.1,0.69-12.26,1.05-21.47s0.54-15.58,0.54-19.1
			c3.73,0.06,6.72,0.09,8.97,0.09c1.03,0,4.01-0.03,8.92-0.09l-1.09,13.58l-2.05,37.73l-0.27,10.89c-3.95-0.06-7.65-0.09-11.08-0.09
			c-2.86,0-6.81,0.03-11.86,0.09c-1.58-2.98-2.75-5.14-3.5-6.47l-7.65-12.99c-2.52-4.25-4.84-8.33-6.96-12.22
			c-1.4-2.46-2.84-5.17-4.32-8.11l-0.98,21.61l-0.47,18.19c-3.76-0.06-6.63-0.09-8.6-0.09
			C703.05,285.13,699.93,285.16,695.35,285.22z"/>
	</g>
</g>
</svg>
